<?xml version="1.0" encoding="UTF-8" standalone="no"?>
<!-- Created with Inkscape (http://www.inkscape.org/) -->

<svg
   xmlns:dc="http://purl.org/dc/elements/1.1/"
   xmlns:cc="http://creativecommons.org/ns#"
   xmlns:rdf="http://www.w3.org/1999/02/22-rdf-syntax-ns#"
   xmlns:svg="http://www.w3.org/2000/svg"
   xmlns="http://www.w3.org/2000/svg"
   xmlns:sodipodi="http://sodipodi.sourceforge.net/DTD/sodipodi-0.dtd"
   xmlns:inkscape="http://www.inkscape.org/namespaces/inkscape"
   version="1.1"
   id="svg2"
   xml:space="preserve"
   width="1056"
   height="703.09601"
   viewBox="0 0 1056 703.09601"
   sodipodi:docname="logo savne.svg"
   inkscape:version="0.92.1 r15371"><metadata
     id="metadata8"><rdf:RDF><cc:Work
         rdf:about=""><dc:format>image/svg+xml</dc:format><dc:type
           rdf:resource="http://purl.org/dc/dcmitype/StillImage" /><dc:title></dc:title></cc:Work></rdf:RDF></metadata><defs
     id="defs6"><clipPath
       clipPathUnits="userSpaceOnUse"
       id="clipPath18"><path
         d="M 0,527.322 H 792 V 0 H 0 Z"
         id="path16"
         inkscape:connector-curvature="0" /></clipPath></defs><sodipodi:namedview
     pagecolor="#ffffff"
     bordercolor="#666666"
     borderopacity="1"
     objecttolerance="10"
     gridtolerance="10"
     guidetolerance="10"
     inkscape:pageopacity="0"
     inkscape:pageshadow="2"
     inkscape:window-width="1920"
     inkscape:window-height="1040"
     id="namedview4"
     showgrid="false"
     inkscape:zoom="0.43792409"
     inkscape:cx="854.57924"
     inkscape:cy="38.516215"
     inkscape:window-x="0"
     inkscape:window-y="0"
     inkscape:window-maximized="1"
     inkscape:current-layer="g10" /><g
     id="g10"
     inkscape:groupmode="layer"
     inkscape:label="color"
     transform="matrix(1.3333333,0,0,-1.3333333,0,703.096)"><g
       id="g12"
       transform="matrix(1.5480604,0,0,1.5480604,-217.03183,-144.50151)"><g
         id="g14"
         clip-path="url(#clipPath18)"><g
           id="g20"
           transform="translate(432.5451,277.6278)"><path
             d="m 0,0 v -0.005 z m -36.102,-73.529 h -3.587 c -1.302,0 -2.494,0.726 -3.08,1.876 l -36.628,72.02 c -0.537,1.055 -0.481,2.31 0.146,3.314 0.628,1.006 1.737,1.617 2.934,1.617 h 3.841 c 1.307,0 2.5,-0.73 3.083,-1.884 l 31.121,-61.617 28.753,61.524 c 0.564,1.205 1.786,1.977 3.129,1.977 h 3.458 c 1.902,0 3.445,-1.525 3.445,-3.402 V 1.624 c 0,-0.692 -0.18,-1.401 -0.567,-2.226 -0.051,-0.283 -0.138,-0.558 -0.261,-0.821 l -32.658,-70.125 c -0.562,-1.208 -1.783,-1.981 -3.129,-1.981"
             style="fill:#202f5a;fill-opacity:1;fill-rule:nonzero;stroke:none"
             id="path22"
             inkscape:connector-curvature="0" /></g><g
           id="g24"
           transform="translate(356.2267,281.4373)"><path
             d="m 0,0 c -0.681,0 -1.301,-0.341 -1.657,-0.912 -0.35,-0.561 -0.382,-1.273 -0.083,-1.86 l 36.629,-72.021 c 0.333,-0.651 1,-1.058 1.74,-1.058 h 3.587 c 0.758,0 1.452,0.439 1.768,1.119 l 32.658,70.124 c 0.068,0.148 0.118,0.303 0.147,0.462 l 0.102,0.333 h -0.073 l 0.086,0.029 c 0.291,0.62 0.427,1.128 0.427,1.598 v 0.272 C 75.331,-0.858 74.459,0 73.387,0 H 69.929 C 69.171,0 68.478,-0.437 68.16,-1.115 L 38.099,-65.438 5.584,-1.062 C 5.253,-0.406 4.586,0 3.843,0 Z m 40.216,-78.828 h -3.587 c -1.878,0 -3.571,1.032 -4.418,2.693 L -4.418,-4.113 c -0.767,1.506 -0.686,3.334 0.21,4.768 C -3.3,2.109 -1.728,2.978 0,2.978 h 3.843 c 1.886,0 3.582,-1.038 4.424,-2.707 L 37.993,-58.587 65.439,0.138 c 0.807,1.725 2.569,2.84 4.49,2.84 h 3.458 c 2.726,0 4.944,-2.196 4.944,-4.892 v -0.272 c 0,-0.87 -0.201,-1.729 -0.631,-2.689 -0.076,-0.336 -0.188,-0.666 -0.335,-0.98 L 44.707,-75.981 c -0.805,-1.729 -2.568,-2.847 -4.491,-2.847"
             style="fill:#202f5a;fill-opacity:1;fill-rule:nonzero;stroke:none"
             id="path26"
             inkscape:connector-curvature="0" /></g><g
           id="g28"
           transform="translate(517.4318,202.6092)"><path
             d="m 0,0 c -1.843,0 -3.424,0.652 -4.701,1.937 -1.271,1.275 -1.915,2.879 -1.915,4.766 v 35.058 c -0.106,8.444 -1.981,14.985 -5.572,19.422 -3.467,4.285 -7.216,6.858 -16.118,7.331 -0.03,0 -0.062,0.001 -0.092,0.001 -5.747,0 -12.197,-2.96 -15.647,-7.224 -3.589,-4.436 -5.464,-10.978 -5.571,-19.441 V 6.811 c 0,-1.888 -0.645,-3.493 -1.916,-4.768 -1.277,-1.282 -2.858,-1.934 -4.699,-1.934 -1.896,0 -3.505,0.651 -4.784,1.935 -1.27,1.276 -1.915,2.88 -1.915,4.767 v 35.057 c 0.057,5.873 0.843,11.272 2.335,16.06 1.509,4.829 3.71,9.012 6.543,12.435 3.459,4.174 13.59,11.807 27.193,10.945 4.653,0.036 10.12,-1.118 14.335,-3.067 4.01,-1.856 7.491,-4.544 10.342,-7.986 2.833,-3.42 5.035,-7.604 6.544,-12.435 V 57.819 C 5.854,53.035 6.641,47.637 6.697,41.774 V 6.703 C 6.697,4.816 6.053,3.212 4.782,1.936 3.505,0.652 1.896,0 0,0"
             style="fill:#202f5a;fill-opacity:1;fill-rule:nonzero;stroke:none"
             id="path30"
             inkscape:connector-curvature="0" /></g><g
           id="g32"
           transform="translate(357.0187,334.6668)"><path
             d="m 0,0 c -4.836,12.369 -15.197,20.771 -28.6,23.191 -3.188,0.576 -4.738,0.552 -10.259,-0.161 -6.056,-0.78 -6.813,-0.988 -10.994,-3.016 -8.735,-4.239 -15.552,-11.795 -18.626,-20.646 -1.58,-4.547 -1.794,-6.055 -2.338,-16.445 -0.272,-5.184 -1.346,-9.279 -3.723,-14.2 -3.4,-7.038 -8.346,-11.983 -16.88,-16.874 -14.3,-8.197 -22.902,-20.339 -25.443,-35.911 -1.039,-6.366 -0.118,-16.56 2.076,-22.993 2.125,-6.227 4.927,-11.199 9.007,-15.979 9.233,-10.82 22.327,-17.069 36.308,-17.362 0.356,-0.007 0.712,-0.031 1.069,-0.011 12.678,0.72 22.098,4.638 29.088,9.837 l 0.825,0.685 -0.009,37.511 c 0.016,0.396 0.024,0.68 0.024,1.08 0,0.405 0.001,0.843 -0.015,1.244 l -0.031,0.564 c -0.144,3.402 -0.933,6.759 -2.203,9.769 -1.432,3.397 -3.368,6.396 -5.86,8.916 -2.492,2.516 -5.791,4.901 -9.187,6.361 -3.388,1.455 -7.441,2.389 -11.369,2.389 -3.873,0 -7.813,-0.643 -11.202,-2.098 -3.398,-1.461 -6.729,-3.426 -9.249,-5.945 -2.518,-2.52 -4.913,-5.676 -6.401,-9.061 -1.663,-3.783 -2.577,-8.098 -2.577,-11.972 0,-3.817 0.811,-7.699 2.265,-11.057 1.462,-3.377 3.782,-6.852 6.277,-9.374 2.491,-2.517 5.764,-4.725 9.166,-6.213 3.382,-1.481 7.378,-2.371 11.306,-2.371 3.927,0 8.213,0.89 11.597,2.371 3.199,1.399 6.338,3.518 8.739,5.834 0.152,0.146 0.386,0.496 0.573,0.4 4.867,-2.497 4.452,-11.133 -0.218,-14.046 -0.025,-0.016 -0.049,-0.03 -0.074,-0.045 -0.176,-0.107 -2.782,-1.638 -3.658,-2.078 -5.212,-2.621 -10.83,-3.991 -16.876,-3.991 -5.68,0 -10.497,0.982 -15.547,3.159 -5.035,2.17 -9.37,4.993 -13.134,8.729 -3.766,3.737 -6.64,7.846 -8.813,12.886 -2.177,5.048 -3.159,10.279 -3.159,15.962 0,5.736 0.945,10.732 3.076,15.547 2.244,5.071 5.046,9.315 8.813,13.052 3.763,3.736 7.682,6.557 12.718,8.729 5.048,2.176 10.53,3.242 16.212,3.242 5.679,0 10.469,-0.927 15.463,-3.076 4.978,-2.141 9.4,-5.135 13.136,-8.812 3.742,-3.686 6.559,-8.239 8.729,-13.218 2.173,-4.983 2.827,-9.416 3.021,-14.882 l 0.11,-26.326 1.169,2.061 c 4.25,7.825 5.581,14.868 5.841,16.793 0.046,0.339 0.086,0.695 0.12,1.063 0.468,5.111 -0.206,12.976 -1.708,19.516 -1.97,8.578 -1.337,16.575 1.9,23.98 1.696,3.882 5.913,9.666 9.358,12.835 6.489,5.97 11.071,14.509 12.181,22.701 C 2.707,-12.635 1.795,-4.591 0,0"
             style="fill:#40b4ad;fill-opacity:1;fill-rule:nonzero;stroke:none"
             id="path34"
             inkscape:connector-curvature="0" /></g><g
           id="g36"
           transform="translate(197.1369,202.8309)"><path
             d="m 0,0 c -3.185,0 -6.355,0.286 -9.425,0.852 -3.082,0.567 -6.037,1.447 -8.782,2.618 -2.767,1.176 -5.301,2.678 -7.532,4.466 -2.276,1.817 -4.124,3.996 -5.494,6.473 -1.113,1.803 -1.424,3.588 -0.893,5.246 0.52,1.622 1.537,2.832 3.026,3.595 1.408,0.722 3.039,0.953 4.846,0.687 1.848,-0.272 3.524,-1.243 4.981,-2.886 l 0.13,-0.17 c 1.966,-2.997 4.509,-5.221 7.557,-6.61 3.109,-1.418 7.007,-2.137 11.586,-2.137 2.234,0 4.424,0.288 6.508,0.856 2.073,0.564 3.934,1.364 5.535,2.38 1.547,0.98 2.796,2.192 3.711,3.604 0.887,1.367 1.318,2.837 1.318,4.493 0,1.775 -0.467,3.238 -1.427,4.47 -1.028,1.32 -2.461,2.497 -4.26,3.5 -1.884,1.045 -4.068,1.965 -6.49,2.73 -2.503,0.789 -5.132,1.516 -7.813,2.162 -3.463,1.022 -6.791,2.131 -9.965,3.318 -3.277,1.224 -6.22,2.728 -8.745,4.469 -2.591,1.784 -4.713,3.942 -6.307,6.411 -1.642,2.543 -2.476,5.563 -2.476,8.978 0,3.625 0.907,6.905 2.695,9.748 1.756,2.789 4.076,5.138 6.896,6.982 2.774,1.817 5.985,3.217 9.542,4.163 6.174,1.644 12.58,1.813 18.822,0.689 2.685,-0.486 5.237,-1.226 7.585,-2.199 2.374,-0.989 4.551,-2.236 6.47,-3.71 1.979,-1.52 3.587,-3.352 4.777,-5.444 0.788,-1.424 1.056,-2.774 0.806,-4.027 -0.247,-1.223 -0.833,-2.258 -1.742,-3.078 -0.891,-0.876 -2.051,-1.483 -3.404,-1.762 -1.385,-0.285 -2.728,-0.139 -3.997,0.434 l -0.26,0.118 -0.198,0.203 c -2.502,2.575 -5.129,4.594 -7.81,6 -2.603,1.365 -5.798,2.058 -9.497,2.058 -2.028,0 -4.068,-0.199 -6.065,-0.59 -1.944,-0.383 -3.708,-0.998 -5.243,-1.83 -1.471,-0.797 -2.673,-1.832 -3.573,-3.076 -0.86,-1.187 -1.277,-2.636 -1.277,-4.431 0,-1.637 0.377,-2.971 1.153,-4.078 0.824,-1.177 1.985,-2.235 3.451,-3.142 1.54,-0.954 3.362,-1.796 5.415,-2.502 2.131,-0.731 4.423,-1.43 6.811,-2.077 3.934,-1.111 7.699,-2.272 11.205,-3.457 3.604,-1.219 6.838,-2.73 9.614,-4.496 2.849,-1.814 5.153,-4.032 6.847,-6.592 1.741,-2.632 2.622,-5.837 2.622,-9.529 0,-3.441 -0.849,-6.674 -2.524,-9.61 C 27.06,11.376 24.785,8.833 21.951,6.708 19.141,4.602 15.817,2.938 12.074,1.764 8.343,0.594 4.28,0 0,0"
             style="fill:#202f5a;fill-opacity:1;fill-rule:nonzero;stroke:none"
             id="path38"
             inkscape:connector-curvature="0" /></g><g
           id="g40"
           transform="translate(387.5636,171.0379)"><path
             d="m 0,0 c 4.188,0 6.277,2.364 6.277,6.445 0,4.081 -2.089,6.329 -6.277,6.329 H -2.032 V 0 Z M -4.312,14.459 H 0.17 c 5.509,0 8.462,-2.885 8.462,-8.014 0,-5.129 -2.953,-8.13 -8.361,-8.13 h -4.583 z"
             style="fill:#a1b0cc;fill-opacity:1;fill-rule:nonzero;stroke:none"
             id="path42"
             inkscape:connector-curvature="0" /></g><path
           d="m 400.038,185.497 h 2.28 v -16.144 h -2.28 z"
           style="fill:#a1b0cc;fill-opacity:1;fill-rule:nonzero;stroke:none"
           id="path44"
           inkscape:connector-curvature="0" /><g
           id="g46"
           transform="translate(406.1769,177.411)"><path
             d="m 0,0 c 0,5.207 3.474,8.381 8.224,8.381 2.482,0 4.117,-1.015 5.166,-1.99 L 12.141,5.053 c -0.909,0.843 -2.058,1.522 -3.858,1.522 -3.609,0 -5.929,-2.499 -5.929,-6.52 0,-4.059 2.13,-6.602 5.953,-6.602 1.285,0 2.52,0.348 3.227,0.948 v 4.203 H 7.741 v 1.704 h 5.872 V -6.479 C 12.461,-7.561 10.499,-8.353 8.091,-8.353 3.364,-8.353 0,-5.243 0,0"
             style="fill:#a1b0cc;fill-opacity:1;fill-rule:nonzero;stroke:none"
             id="path48"
             inkscape:connector-curvature="0" /></g><path
           d="m 424.059,185.497 h 2.28 v -16.144 h -2.28 z"
           style="fill:#a1b0cc;fill-opacity:1;fill-rule:nonzero;stroke:none"
           id="path50"
           inkscape:connector-curvature="0" /><g
           id="g52"
           transform="translate(434.9679,183.7587)"><path
             d="M 0,0 H -5.42 V 1.738 H 7.699 V 0 H 2.279 V -14.405 H 0 Z"
             style="fill:#a1b0cc;fill-opacity:1;fill-rule:nonzero;stroke:none"
             id="path54"
             inkscape:connector-curvature="0" /></g><path
           d="m 445.586,175.91 h 8.25 v -1.639 h -8.25 z m 2.875,9.587 h 2.572 l 6.061,-16.144 h -2.415 l -3.124,9.017 c -0.644,1.805 -1.219,3.577 -1.793,5.439 h -0.11 c -0.554,-1.872 -1.129,-3.634 -1.773,-5.439 l -3.158,-9.017 h -2.32 z"
           style="fill:#a1b0cc;fill-opacity:1;fill-rule:nonzero;stroke:none"
           id="path56"
           inkscape:connector-curvature="0" /><g
           id="g58"
           transform="translate(459.5168,185.4969)"><path
             d="m 0,0 h 2.28 v -14.405 h 7.82 v -1.739 H 0 Z"
             style="fill:#a1b0cc;fill-opacity:1;fill-rule:nonzero;stroke:none"
             id="path60"
             inkscape:connector-curvature="0" /></g><g
           id="g62"
           transform="translate(476.9435,171.4549)"><path
             d="m 0,0 1.364,1.41 c 1.29,-1.206 3.08,-2.001 4.943,-2.001 2.351,0 3.746,1.056 3.746,2.624 0,1.649 -1.298,2.175 -2.99,2.84 L 4.49,5.896 c -1.669,0.642 -3.628,1.783 -3.628,4.157 0,2.466 2.385,4.284 5.64,4.284 2.124,0 4.018,-0.828 5.275,-2 l -1.209,-1.319 c -1.097,0.933 -2.411,1.513 -4.066,1.513 -2.009,0 -3.34,-0.913 -3.34,-2.357 0,-1.555 1.563,-2.137 2.966,-2.671 L 8.682,6.507 c 2.073,-0.803 3.69,-1.916 3.69,-4.316 0,-2.55 -2.339,-4.587 -6.105,-4.587 C 3.752,-2.396 1.566,-1.473 0,0"
             style="fill:#a1b0cc;fill-opacity:1;fill-rule:nonzero;stroke:none"
             id="path64"
             inkscape:connector-curvature="0" /></g><g
           id="g66"
           transform="translate(504.7384,177.4833)"><path
             d="m 0,0 c 0,4.021 -2.104,6.503 -5.303,6.503 -3.199,0 -5.302,-2.482 -5.302,-6.503 0,-4.021 2.103,-6.619 5.302,-6.619 C -2.104,-6.619 0,-4.021 0,0 m -12.96,0 c 0,5.171 3.158,8.309 7.657,8.309 4.5,0 7.657,-3.147 7.657,-8.309 0,-5.17 -3.157,-8.425 -7.657,-8.425 -4.499,0 -7.657,3.255 -7.657,8.425"
             style="fill:#a1b0cc;fill-opacity:1;fill-rule:nonzero;stroke:none"
             id="path68"
             inkscape:connector-curvature="0" /></g><g
           id="g70"
           transform="translate(510.9435,185.4969)"><path
             d="m 0,0 h 2.28 v -14.405 h 7.82 v -1.739 H 0 Z"
             style="fill:#a1b0cc;fill-opacity:1;fill-rule:nonzero;stroke:none"
             id="path72"
             inkscape:connector-curvature="0" /></g><g
           id="g74"
           transform="translate(523.3439,176.0194)"><path
             d="m 0,0 v 9.478 h 2.279 v -9.535 c 0,-3.879 1.821,-5.098 4.159,-5.098 2.375,0 4.249,1.219 4.249,5.098 v 9.535 h 2.185 V 0 c 0,-5.181 -2.776,-6.961 -6.434,-6.961 C 2.781,-6.961 0,-5.181 0,0"
             style="fill:#a1b0cc;fill-opacity:1;fill-rule:nonzero;stroke:none"
             id="path76"
             inkscape:connector-curvature="0" /></g><g
           id="g78"
           transform="translate(544.7551,183.7587)"><path
             d="M 0,0 H -5.42 V 1.738 H 7.699 V 0 H 2.279 V -14.405 H 0 Z"
             style="fill:#a1b0cc;fill-opacity:1;fill-rule:nonzero;stroke:none"
             id="path80"
             inkscape:connector-curvature="0" /></g><path
           d="m 555.655,185.497 h 2.28 v -16.144 h -2.28 z"
           style="fill:#a1b0cc;fill-opacity:1;fill-rule:nonzero;stroke:none"
           id="path82"
           inkscape:connector-curvature="0" /><g
           id="g84"
           transform="translate(574.7541,177.4833)"><path
             d="m 0,0 c 0,4.021 -2.104,6.503 -5.303,6.503 -3.199,0 -5.302,-2.482 -5.302,-6.503 0,-4.021 2.103,-6.619 5.302,-6.619 C -2.104,-6.619 0,-4.021 0,0 m -12.96,0 c 0,5.171 3.158,8.309 7.657,8.309 4.5,0 7.657,-3.147 7.657,-8.309 0,-5.17 -3.157,-8.425 -7.657,-8.425 -4.499,0 -7.657,3.255 -7.657,8.425"
             style="fill:#a1b0cc;fill-opacity:1;fill-rule:nonzero;stroke:none"
             id="path86"
             inkscape:connector-curvature="0" /></g><g
           id="g88"
           transform="translate(580.9592,185.4969)"><path
             d="m 0,0 h 2.354 l 6.485,-10.149 1.934,-3.342 h 0.11 c -0.115,1.628 -0.29,3.448 -0.29,5.136 V 0 h 2.165 V -16.144 H 10.402 L 3.919,-5.985 1.984,-2.652 H 1.875 c 0.115,-1.634 0.29,-3.355 0.29,-5.043 v -8.449 H 0 Z"
             style="fill:#a1b0cc;fill-opacity:1;fill-rule:nonzero;stroke:none"
             id="path90"
             inkscape:connector-curvature="0" /></g><g
           id="g92"
           transform="translate(597.3205,171.4549)"><path
             d="m 0,0 1.364,1.41 c 1.29,-1.206 3.08,-2.001 4.943,-2.001 2.351,0 3.746,1.056 3.746,2.624 0,1.649 -1.298,2.175 -2.99,2.84 L 4.49,5.896 c -1.669,0.642 -3.628,1.783 -3.628,4.157 0,2.466 2.385,4.284 5.64,4.284 2.124,0 4.018,-0.828 5.275,-2 l -1.209,-1.319 c -1.097,0.933 -2.411,1.513 -4.066,1.513 -2.009,0 -3.34,-0.913 -3.34,-2.357 0,-1.555 1.563,-2.137 2.966,-2.671 L 8.682,6.507 c 2.073,-0.803 3.69,-1.916 3.69,-4.316 0,-2.55 -2.339,-4.587 -6.105,-4.587 C 3.752,-2.396 1.566,-1.473 0,0"
             style="fill:#a1b0cc;fill-opacity:1;fill-rule:nonzero;stroke:none"
             id="path94"
             inkscape:connector-curvature="0" /></g><g
           id="g96"
           transform="translate(585.9924,202.4471)"><path
             d="m 0,0 h -2.921 c -1.098,0 -2.314,0.11 -3.616,0.327 l -0.139,0.027 c -4.962,0.883 -9.516,2.546 -13.539,4.945 -3.92,2.332 -7.556,5.253 -10.804,8.68 l -0.14,0.157 c -3.751,4.325 -6.429,9.172 -7.965,14.412 -1.486,5.057 -2.143,10.374 -1.95,15.802 0.205,3.696 1.017,7.367 2.415,10.943 1.34,3.442 3.007,6.614 4.953,9.429 4.051,5.515 8.802,9.694 14.144,12.457 5.265,2.718 10.791,4.296 16.424,4.685 5.622,0.396 11.2,-0.347 16.578,-2.199 5.356,-1.845 10.201,-4.653 14.399,-8.349 4.238,-3.734 7.627,-8.371 10.071,-13.78 2.479,-5.483 3.586,-11.663 3.293,-18.366 -0.118,-2.668 -2.308,-4.758 -4.988,-4.758 H 2.077 c -2.752,0 -4.991,2.232 -4.991,4.975 v 3.623 c 0,2.743 2.239,4.974 4.991,4.974 h 24.94 c -2.092,7.587 -6.642,13.376 -13.863,17.659 -2.462,1.469 -5.144,2.426 -7.979,2.847 -3.041,0.446 -6.102,0.485 -9.099,0.113 -3.263,-0.363 -6.352,-1.357 -9.204,-2.957 -2.954,-1.655 -5.529,-3.716 -7.655,-6.127 -3.091,-3.449 -5.165,-7.248 -6.173,-11.303 -1.031,-4.141 -1.165,-8.252 -0.398,-12.223 0.766,-3.958 2.441,-7.73 4.979,-11.212 2.541,-3.486 5.863,-6.38 9.873,-8.599 1.757,-0.945 3.722,-1.64 5.824,-2.061 2.536,-0.504 5.012,-0.922 7.357,-1.242 2.459,-0.334 4.313,-2.453 4.313,-4.927 V 4.976 C 4.992,2.231 2.753,0 0,0"
             style="fill:#202f5a;fill-opacity:1;fill-rule:nonzero;stroke:none"
             id="path98"
             inkscape:connector-curvature="0" /></g><g
           id="g100"
           transform="translate(610.7394,208.5038)"><path
             d="m 0,0 c 0,-4.183 -3.391,-7.572 -7.572,-7.572 -4.182,0 -7.573,3.389 -7.573,7.572 0,4.182 3.391,7.571 7.573,7.571 C -3.391,7.571 0,4.182 0,0"
             style="fill:#202f5a;fill-opacity:1;fill-rule:nonzero;stroke:none"
             id="path102"
             inkscape:connector-curvature="0" /></g></g></g></g></svg>